<?xml version="1.0" standalone="no"?>
<!DOCTYPE svg PUBLIC "-//W3C//DTD SVG 20010904//EN"
 "http://www.w3.org/TR/2001/REC-SVG-20010904/DTD/svg10.dtd">
<svg version="1.0" xmlns="http://www.w3.org/2000/svg"
 width="370.000000pt" height="280.000000pt" viewBox="0 0 370.000000 280.000000"
 preserveAspectRatio="xMidYMid meet">
<metadata>
Created by potrace 1.16, written by Peter Selinger 2001-2019
</metadata>
<g transform="translate(0.000000,280.000000) scale(0.100000,-0.100000)"
fill="#000000" stroke="none">
<path d="M1377 2684 c-4 -4 -7 -65 -7 -136 l0 -129 43 3 c42 3 42 3 45 46 3
43 3 43 40 40 36 -3 37 -4 40 -45 l3 -43 45 0 45 0 -3 133 -3 132 -40 0 c-39
0 -40 -1 -45 -40 -5 -38 -7 -40 -42 -43 -37 -3 -37 -3 -40 40 -3 41 -4 43 -38
46 -20 2 -39 0 -43 -4z"/>
<path d="M1677 2683 c-4 -3 -7 -24 -7 -45 0 -37 1 -38 35 -38 l34 0 3 -87 3
-88 45 0 45 0 3 88 3 87 34 0 c35 0 35 0 35 45 l0 45 -113 0 c-63 0 -117 -3
-120 -7z"/>
<path d="M1957 2683 c-4 -3 -7 -64 -7 -135 l0 -128 45 0 45 0 0 55 c0 30 4 55
8 55 5 0 17 -16 28 -35 10 -19 22 -35 25 -35 4 0 18 17 30 38 l24 37 5 -55 5
-55 43 -3 43 -3 -3 133 -3 133 -42 3 c-40 3 -43 1 -69 -44 -31 -52 -25 -54
-77 21 -14 19 -27 25 -56 25 -21 0 -41 -3 -44 -7z"/>
<path d="M2300 2556 l0 -136 105 0 105 0 0 45 0 45 -60 0 -59 0 -3 88 -3 87
-42 3 -43 3 0 -135z"/>
<path d="M1250 2272 c0 -25 28 -348 40 -465 5 -55 8 -103 4 -108 -3 -5 -250
-9 -589 -9 l-584 0 4 -27 c3 -16 14 -131 25 -258 11 -126 27 -300 35 -385 8
-85 24 -261 35 -390 30 -348 30 -349 49 -359 9 -5 93 -30 186 -56 94 -26 208
-58 255 -72 47 -14 94 -26 105 -26 27 0 556 150 565 160 4 4 17 132 30 283 13
151 27 278 32 281 5 3 53 -7 106 -22 53 -15 162 -46 242 -68 l145 -40 240 65
c132 37 260 72 285 78 l45 12 17 185 c27 293 47 523 73 828 14 156 28 312 31
347 l7 64 -692 0 c-657 0 -691 -1 -691 -18z m1135 -344 c-4 -51 -12 -99 -18
-107 -10 -12 -65 -13 -339 -7 l-328 7 1 -33 c0 -18 4 -55 7 -81 l7 -48 324 1
324 1 -6 -48 c-3 -27 -13 -145 -22 -263 -9 -118 -20 -224 -25 -236 -6 -16 -38
-29 -159 -63 -83 -23 -166 -44 -184 -47 -21 -3 -95 12 -210 45 -98 27 -180 51
-182 53 -5 5 -25 203 -25 249 l0 39 90 0 c64 0 92 -4 94 -12 2 -7 8 -40 12
-72 l9 -59 88 -24 89 -24 95 28 c77 23 97 32 98 48 2 11 6 57 9 102 l6 83
-297 2 -298 3 -7 35 c-13 64 -47 495 -40 502 7 7 141 10 671 16 l224 2 -8 -92z
m-1085 -355 c0 -5 7 -80 15 -168 29 -309 29 -330 -4 -695 -20 -219 -36 -347
-43 -352 -7 -3 -57 -19 -113 -34 -55 -15 -151 -42 -212 -59 -62 -17 -115 -29
-118 -27 -3 3 -5 43 -5 89 0 98 15 86 -175 138 -71 20 -144 40 -161 46 l-31
10 -13 134 c-6 73 -9 138 -5 144 7 12 142 15 169 5 10 -4 16 -18 16 -38 0 -17
3 -47 6 -67 6 -36 7 -37 88 -58 44 -12 87 -21 94 -21 9 0 12 33 12 130 l0 130
-95 0 c-112 0 -111 0 -116 110 l-4 75 108 3 108 3 -3 82 -3 82 -200 2 c-110 1
-205 2 -212 3 -12 0 -20 42 -25 125 l-3 50 220 5 220 5 3 78 3 77 239 0 c132
0 240 -3 240 -7z"/>
<path d="M427 2084 c-4 -4 -7 -65 -7 -136 l0 -128 106 0 105 0 -3 38 -3 37
-55 0 -55 0 -6 50 c-3 28 -4 53 -2 58 2 4 31 7 64 7 l60 0 -3 38 -3 37 -95 3
c-53 1 -99 0 -103 -4z"/>
<path d="M687 2084 c-4 -4 -7 -20 -7 -36 0 -22 14 -44 55 -87 30 -32 52 -61
48 -64 -3 -4 -28 -7 -55 -7 l-48 0 0 -35 0 -36 123 3 122 3 3 26 c2 21 -10 40
-52 87 -31 33 -56 62 -56 65 0 3 21 7 48 9 47 3 47 3 47 38 l0 35 -111 3 c-60
1 -113 -1 -117 -4z"/>
<path d="M977 2083 c-20 -19 -3 -60 48 -118 30 -35 55 -66 55 -69 0 -3 -25 -6
-55 -6 l-55 0 0 -35 0 -35 125 0 125 0 0 33 c0 25 -12 44 -56 90 -31 32 -54
61 -50 64 4 4 27 6 51 4 l45 -3 0 41 0 41 -113 0 c-63 0 -117 -3 -120 -7z"/>
<path d="M3131 1039 c-84 -26 -124 -81 -124 -171 1 -92 31 -128 162 -194 57
-29 108 -58 112 -66 16 -25 9 -57 -18 -78 -41 -32 -113 -24 -157 19 -17 17
-37 31 -44 31 -17 0 -92 -48 -92 -59 0 -21 54 -71 102 -95 42 -21 66 -26 127
-26 157 1 237 80 216 216 -9 65 -53 108 -171 169 -77 39 -101 56 -108 77 -22
62 71 94 124 43 l26 -24 44 29 c25 17 44 36 42 43 -5 19 -44 57 -74 73 -36 19
-125 26 -167 13z"/>
<path d="M2767 1033 c-4 -3 -7 -114 -7 -245 0 -225 -1 -239 -20 -258 -29 -29
-66 -25 -102 10 -16 17 -34 30 -39 30 -17 0 -89 -52 -89 -64 0 -22 31 -56 76
-82 40 -23 53 -26 122 -23 92 5 134 29 163 93 17 36 19 69 19 294 l0 252 -58
0 c-32 0 -62 -3 -65 -7z"/>
</g>
</svg>
