<?xml version="1.0" standalone="no"?>
<!DOCTYPE svg PUBLIC "-//W3C//DTD SVG 20010904//EN"
 "http://www.w3.org/TR/2001/REC-SVG-20010904/DTD/svg10.dtd">
<svg version="1.0" xmlns="http://www.w3.org/2000/svg"
 width="768.000000pt" height="768.000000pt" viewBox="0 0 768.000000 768.000000"
 preserveAspectRatio="xMidYMid meet">
<metadata>
Created by potrace 1.16, written by Peter Selinger 2001-2019
</metadata>
<g transform="translate(0.000000,768.000000) scale(0.100000,-0.100000)"
fill="#000000" stroke="none">
<path d="M3380 7669 c-582 -50 -988 -190 -1212 -416 -79 -80 -131 -163 -158
-252 -19 -59 -20 -94 -20 -557 l0 -494 935 0 935 0 0 -130 0 -130 -1422 -2
-1423 -3 -90 -28 c-432 -134 -710 -466 -844 -1007 -57 -232 -73 -373 -78 -713
-7 -404 11 -625 73 -907 111 -501 349 -854 681 -1007 150 -69 181 -73 610 -73
l383 0 0 498 c0 527 5 608 51 770 95 341 325 587 634 681 180 55 155 54 1335
61 1075 6 1096 7 1175 27 45 12 118 35 164 52 269 98 461 287 549 541 58 167
57 146 57 1245 l0 1010 -27 78 c-14 43 -45 110 -69 150 -53 90 -197 236 -299
302 -219 142 -539 242 -930 291 -157 19 -836 28 -1010 13z m-466 -609 c76 -29
139 -88 178 -168 28 -57 33 -76 32 -142 0 -92 -23 -148 -90 -220 -68 -73 -140
-105 -234 -105 -271 0 -424 300 -267 522 82 115 244 164 381 113z"/>
</g>
</svg>
